<?xml version="1.0" encoding="utf-8"?>
<!-- Generator: Adobe Illustrator 24.1.0, SVG Export Plug-In . SVG Version: 6.00 Build 0)  -->
<svg version="1.1" id="Layer_1" xmlns="http://www.w3.org/2000/svg" xmlns:xlink="http://www.w3.org/1999/xlink" x="0px" y="0px"
	 viewBox="0 0 1067.9 334.4" style="enable-background:new 0 0 1067.9 334.4;" xml:space="preserve">
<style type="text/css">
	.st0{fill:#000DFF;}
	.st1{fill:#17CCBE;}
</style>
<g id="Ebene_2">
	<g id="Ebene_1-2">
		<path class="st0" d="M509.5,72.6h-46.7v50.8h-30V0h30v48.3h46.7V0h30v123.3h-30V72.6z"/>
		<path class="st0" d="M637.8,101.5h-46l-7.4,21.8H553L597.6,0.1h34.8L677,123.3h-31.8L637.8,101.5z M614.8,33.2l-15.1,45.1h30.4
			L614.8,33.2z"/>
		<path class="st0" d="M774.5,0h31.8l-43.7,123.3H725L681.3,0h32l30.6,93.1L774.5,0z"/>
		<path class="st0" d="M894.2,24.1h-45.5V49H889v23.2h-40.3v27h45.5v24.1h-75.5V0h75.5V24.1z"/>
		<path class="st0" d="M943.7,0v100.1H983v23.2h-69.4V0H943.7z"/>
		<path class="st1" d="M526,211.1h31.8l-43.7,123.3h-37.6l-43.7-123.3h32l30.6,93.1L526,211.1z"/>
		<path class="st1" d="M647,312.6h-46l-7.4,21.8h-31.4l44.6-123.3h34.8l44.6,123.3h-31.8L647,312.6z M624,244.3l-15.1,45.1h30.4
			L624,244.3z"/>
		<path class="st1" d="M729.7,211.1v100.1H769v23.2h-69.4V211.1H729.7z"/>
		<path class="st1" d="M813.5,211.1v100.1h39.3v23.2h-69.4V211.1H813.5z"/>
		<path class="st1" d="M942.7,235.2h-45.5v24.9h40.2v23.2h-40.2v27h45.5v24.1h-75.5V211.1h75.5V235.2z"/>
		<path class="st1" d="M952.5,211.1h34.1l23.9,51.6l23.7-51.6h33.7l-42.7,82.5v40.8h-30v-40.8L952.5,211.1z"/>
		<circle class="st0" cx="167.2" cy="167.2" r="167.2"/>
	</g>
</g>
</svg>
